<mxfile host="65bd71144e">
    <diagram name="Flowchart" id="main">
        <mxGraphModel dx="1996" dy="779" grid="1" gridSize="10" guides="1" tooltips="1" connect="1" arrows="1" fold="1" page="1" pageScale="1" pageWidth="850" pageHeight="1100" math="0" shadow="0">
            <root>
                <mxCell id="0"/>
                <mxCell id="1" parent="0"/>
                <mxCell id="start" value="Start" style="ellipse;whiteSpace=wrap;html=1;" parent="1" vertex="1">
                    <mxGeometry x="130" y="20" width="100" height="40" as="geometry"/>
                </mxCell>
                <mxCell id="inputN" value="รับค่า N" style="parallelogram;whiteSpace=wrap;html=1;" parent="1" vertex="1">
                    <mxGeometry x="120" y="100" width="120" height="40" as="geometry"/>
                </mxCell>
                <mxCell id="outputSeries" value="แสดงข้อความ &#39;Series:&#39;" style="parallelogram;whiteSpace=wrap;html=1;" parent="1" vertex="1">
                    <mxGeometry x="90" y="180" width="180" height="40" as="geometry"/>
                </mxCell>
                <mxCell id="condOddEven" value="N เป็นเลขคี่?" style="rhombus;whiteSpace=wrap;html=1;" parent="1" vertex="1">
                    <mxGeometry x="100" y="260" width="160" height="80" as="geometry"/>
                </mxCell>
                <mxCell id="forOdd" value="เริ่มลูป i = 1 ถึง N" style="rectangle;whiteSpace=wrap;html=1;" parent="1" vertex="1">
                    <mxGeometry x="-140" y="380" width="160" height="40" as="geometry"/>
                </mxCell>
                <mxCell id="condIOdd" value="i เป็นเลขคี่?" style="rhombus;whiteSpace=wrap;html=1;" parent="1" vertex="1">
                    <mxGeometry x="-140" y="460" width="160" height="80" as="geometry"/>
                </mxCell>
                <mxCell id="outputOdd" value="แสดงค่า i" style="parallelogram;whiteSpace=wrap;html=1;" parent="1" vertex="1">
                    <mxGeometry x="-340" y="580" width="120" height="40" as="geometry"/>
                </mxCell>
                <mxCell id="endForOdd" value="สิ้นสุดลูป (i++)" style="rectangle;whiteSpace=wrap;html=1;" parent="1" vertex="1">
                    <mxGeometry x="-140" y="680" width="160" height="40" as="geometry"/>
                </mxCell>
                <mxCell id="forEven" value="เริ่มลูป i = N ถึง 0" style="rectangle;whiteSpace=wrap;html=1;" parent="1" vertex="1">
                    <mxGeometry x="380" y="380" width="160" height="40" as="geometry"/>
                </mxCell>
                <mxCell id="condIEven" value="i เป็นเลขคู่?" style="rhombus;whiteSpace=wrap;html=1;" parent="1" vertex="1">
                    <mxGeometry x="380" y="460" width="160" height="80" as="geometry"/>
                </mxCell>
                <mxCell id="outputEven" value="แสดงค่า i" style="parallelogram;whiteSpace=wrap;html=1;" parent="1" vertex="1">
                    <mxGeometry x="580" y="580" width="120" height="40" as="geometry"/>
                </mxCell>
                <mxCell id="endForEven" value="สิ้นสุดลูป (i--)" style="rectangle;whiteSpace=wrap;html=1;" parent="1" vertex="1">
                    <mxGeometry x="380" y="680" width="160" height="40" as="geometry"/>
                </mxCell>
                <mxCell id="stop" value="Stop" style="ellipse;whiteSpace=wrap;html=1;" parent="1" vertex="1">
                    <mxGeometry x="100" y="800" width="100" height="40" as="geometry"/>
                </mxCell>
                <mxCell id="edge1" parent="1" source="start" target="inputN" edge="1">
                    <mxGeometry relative="1" as="geometry"/>
                </mxCell>
                <mxCell id="edge2" parent="1" source="inputN" target="outputSeries" edge="1">
                    <mxGeometry relative="1" as="geometry"/>
                </mxCell>
                <mxCell id="edge3" parent="1" source="outputSeries" target="condOddEven" edge="1">
                    <mxGeometry relative="1" as="geometry"/>
                </mxCell>
                <mxCell id="edgeOdd" value="True" parent="1" source="condOddEven" target="forOdd" edge="1">
                    <mxGeometry relative="1" as="geometry"/>
                </mxCell>
                <mxCell id="edge4" parent="1" source="forOdd" target="condIOdd" edge="1">
                    <mxGeometry relative="1" as="geometry"/>
                </mxCell>
                <mxCell id="edge5" value="True" parent="1" source="condIOdd" target="outputOdd" edge="1">
                    <mxGeometry relative="1" as="geometry"/>
                </mxCell>
                <mxCell id="edge6" parent="1" source="outputOdd" target="endForOdd" edge="1">
                    <mxGeometry relative="1" as="geometry"/>
                </mxCell>
                <mxCell id="edge7" value="False" parent="1" source="condIOdd" target="endForOdd" edge="1">
                    <mxGeometry relative="1" as="geometry"/>
                </mxCell>
                <mxCell id="edge8" parent="1" source="endForOdd" target="stop" edge="1">
                    <mxGeometry relative="1" as="geometry"/>
                </mxCell>
                <mxCell id="edgeEven" value="False" parent="1" source="condOddEven" target="forEven" edge="1">
                    <mxGeometry relative="1" as="geometry"/>
                </mxCell>
                <mxCell id="edge9" parent="1" source="forEven" target="condIEven" edge="1">
                    <mxGeometry relative="1" as="geometry"/>
                </mxCell>
                <mxCell id="edge10" value="True" parent="1" source="condIEven" target="outputEven" edge="1">
                    <mxGeometry relative="1" as="geometry"/>
                </mxCell>
                <mxCell id="edge11" parent="1" source="outputEven" target="endForEven" edge="1">
                    <mxGeometry relative="1" as="geometry"/>
                </mxCell>
                <mxCell id="edge12" value="False" parent="1" source="condIEven" target="endForEven" edge="1">
                    <mxGeometry relative="1" as="geometry"/>
                </mxCell>
                <mxCell id="edge13" parent="1" source="endForEven" target="stop" edge="1">
                    <mxGeometry relative="1" as="geometry"/>
                </mxCell>
            </root>
        </mxGraphModel>
    </diagram>
</mxfile>